<mxfile host="app.diagrams.net" modified="2023-11-01T15:05:28.445Z" agent="Mozilla/5.0 (X11; CrOS x86_64 14541.0.0) AppleWebKit/537.36 (KHTML, like Gecko) Chrome/118.0.0.0 Safari/537.36" version="22.0.8" etag="YRXs2R4_-JHaoyq_mBUr" type="github">
  <diagram name="Page-1" id="mZ-PkFmT2fBlcbLEdjlf">
    <mxGraphModel>
      <root>
        <mxCell id="0" />
        <mxCell id="1" parent="0" />
      </root>
    </mxGraphModel>
  </diagram>
</mxfile>
